<?xml version="1.0" encoding="UTF-8"?>
<svg id="Layer_1" xmlns="http://www.w3.org/2000/svg" version="1.1" viewBox="0 0 762.39 381.52">
  <!-- Generator: Adobe Illustrator 30.1.0, SVG Export Plug-In . SVG Version: 2.1.1 Build 136)  -->
  <defs>
    <style>
      .st0 {
        fill: #c1272d;
      }

      .st1 {
        fill: #253e5d;
      }
    </style>
  </defs>
  <path class="st1" d="M8.39,113.59h146.42v37.75H63.14v28.1h85.03v36.06H63.14v34.86h94.31v40.04H8.39V113.59Z"/>
  <path class="st1" d="M186.89,113.59h54.63v133.27h85.27v43.54h-139.9V113.59Z"/>
  <path class="st1" d="M299.72,113.59h57.11l39.79,127.24,39.29-127.24h55.45l-65.65,176.81h-59.22l-66.77-176.81Z"/>
  <path class="st1" d="M509.38,113.59h54.75v176.81h-54.75V113.59Z"/>
  <path class="st1" d="M593.81,231.9l51.98-3.26c1.12,8.44,3.42,14.88,6.87,19.3,5.63,7.16,13.67,10.73,24.12,10.73,7.8,0,13.81-1.83,18.03-5.49,4.22-3.66,6.33-7.9,6.33-12.72s-2.01-8.68-6.03-12.3-13.35-7.04-27.98-10.25c-23.96-5.39-41.05-12.54-51.26-21.47-10.29-8.92-15.44-20.3-15.44-34.13,0-9.08,2.63-17.67,7.9-25.75,5.27-8.08,13.19-14.43,23.76-19.06,10.57-4.62,25.07-6.94,43.48-6.94,22.59,0,39.82,4.2,51.68,12.6,11.86,8.4,18.92,21.77,21.17,40.1l-51.5,3.02c-1.37-7.96-4.24-13.75-8.62-17.37-4.38-3.62-10.43-5.43-18.15-5.43-6.35,0-11.14,1.35-14.35,4.04-3.22,2.69-4.82,5.97-4.82,9.83,0,2.82,1.33,5.35,3.98,7.6,2.57,2.33,8.68,4.5,18.33,6.51,23.88,5.15,40.99,10.35,51.32,15.62,10.33,5.27,17.85,11.8,22.55,19.6,4.7,7.8,7.06,16.52,7.06,26.17,0,11.34-3.14,21.79-9.41,31.36-6.27,9.57-15.04,16.83-26.29,21.77-11.26,4.95-25.45,7.42-42.57,7.42-30.07,0-50.9-5.79-62.47-17.37s-18.13-26.29-19.66-44.14Z"/>
  <path class="st1" d="M132.85,341.04h25.16v7.08h-14.94v5.75h12.76v6.65h-12.76v13.45h-10.22v-32.93Z"/>
  <path class="st1" d="M171.92,357.53c0-5.38,1.5-9.56,4.49-12.56,2.99-3,7.17-4.49,12.51-4.49s9.7,1.47,12.67,4.41c2.96,2.94,4.45,7.06,4.45,12.37,0,3.85-.65,7-1.94,9.47-1.3,2.46-3.17,4.38-5.62,5.75-2.45,1.37-5.5,2.06-9.15,2.06s-6.79-.59-9.22-1.77c-2.43-1.18-4.41-3.05-5.92-5.62-1.51-2.56-2.27-5.76-2.27-9.61ZM182.09,357.57c0,3.32.62,5.71,1.85,7.17s2.92,2.18,5.04,2.18,3.88-.71,5.08-2.13c1.2-1.42,1.8-3.98,1.8-7.66,0-3.1-.63-5.36-1.88-6.79-1.25-1.43-2.95-2.14-5.09-2.14s-3.7.73-4.94,2.18c-1.24,1.45-1.86,3.86-1.86,7.21Z"/>
  <path class="st1" d="M221.36,373.97v-32.93h16.96c3.14,0,5.55.27,7.21.81s3,1.54,4.02,3c1.02,1.46,1.53,3.24,1.53,5.33,0,1.83-.39,3.4-1.17,4.73-.78,1.33-1.85,2.4-3.21,3.22-.87.52-2.06.96-3.57,1.3,1.21.41,2.09.81,2.65,1.21.37.27.92.85,1.63,1.73.71.88,1.19,1.57,1.43,2.05l4.93,9.54h-11.5l-5.44-10.06c-.69-1.3-1.3-2.15-1.84-2.54-.73-.51-1.56-.76-2.49-.76h-.9v13.36h-10.22ZM231.58,354.38h4.29c.46,0,1.36-.15,2.7-.45.67-.13,1.22-.48,1.65-1.03s.64-1.19.64-1.91c0-1.06-.34-1.88-1.01-2.45s-1.94-.85-3.8-.85h-4.47v6.69Z"/>
  <path class="st1" d="M313.68,360.49l8.92,2.7c-.6,2.5-1.54,4.59-2.83,6.27-1.29,1.68-2.89,2.94-4.8,3.8s-4.34,1.28-7.29,1.28c-3.58,0-6.5-.52-8.77-1.56-2.27-1.04-4.23-2.87-5.87-5.49-1.65-2.62-2.47-5.97-2.47-10.06,0-5.45,1.45-9.63,4.35-12.56,2.9-2.93,7-4.39,12.3-4.39,4.15,0,7.41.84,9.78,2.52,2.37,1.68,4.14,4.25,5.29,7.73l-8.98,2c-.31-1-.64-1.74-.99-2.2-.57-.78-1.27-1.38-2.09-1.8-.82-.42-1.74-.63-2.76-.63-2.31,0-4.07.93-5.3,2.78-.93,1.38-1.39,3.54-1.39,6.48,0,3.65.55,6.15,1.66,7.5,1.11,1.35,2.67,2.03,4.67,2.03s3.42-.55,4.41-1.64c1-1.09,1.72-2.68,2.17-4.76Z"/>
  <path class="st1" d="M335.96,357.53c0-5.38,1.5-9.56,4.49-12.56,2.99-3,7.17-4.49,12.51-4.49s9.7,1.47,12.67,4.41c2.96,2.94,4.45,7.06,4.45,12.37,0,3.85-.65,7-1.94,9.47-1.29,2.46-3.17,4.38-5.62,5.75-2.45,1.37-5.5,2.06-9.15,2.06s-6.79-.59-9.22-1.77c-2.43-1.18-4.41-3.05-5.92-5.62-1.51-2.56-2.27-5.76-2.27-9.61ZM346.14,357.57c0,3.32.62,5.71,1.85,7.17s2.92,2.18,5.04,2.18,3.88-.71,5.08-2.13c1.2-1.42,1.8-3.98,1.8-7.66,0-3.1-.62-5.36-1.88-6.79-1.25-1.43-2.95-2.14-5.09-2.14s-3.7.73-4.94,2.18c-1.24,1.45-1.86,3.86-1.86,7.21Z"/>
  <path class="st1" d="M385.33,341.04h9.5l12.4,18.22v-18.22h9.59v32.93h-9.59l-12.33-18.08v18.08h-9.57v-32.93Z"/>
  <path class="st1" d="M449.84,362.04v-6.85h15.72v14.04c-3.01,2.05-5.67,3.45-7.99,4.19-2.31.74-5.06,1.11-8.23,1.11-3.91,0-7.09-.67-9.56-2-2.46-1.33-4.37-3.32-5.73-5.95-1.36-2.64-2.03-5.66-2.03-9.07,0-3.59.74-6.72,2.22-9.38,1.48-2.66,3.65-4.67,6.51-6.05,2.23-1.06,5.23-1.59,9.01-1.59s6.36.33,8.16.99c1.8.66,3.3,1.68,4.49,3.07,1.19,1.39,2.09,3.14,2.68,5.27l-9.82,1.75c-.4-1.24-1.09-2.19-2.05-2.85-.97-.66-2.2-.99-3.7-.99-2.23,0-4.01.77-5.33,2.33-1.33,1.55-1.99,4-1.99,7.36,0,3.56.67,6.11,2.01,7.64,1.34,1.53,3.21,2.29,5.6,2.29,1.14,0,2.22-.17,3.26-.49s2.22-.89,3.55-1.68v-3.1h-6.81Z"/>
  <path class="st1" d="M481.45,373.97v-32.93h16.96c3.14,0,5.55.27,7.21.81s3,1.54,4.02,3c1.02,1.46,1.53,3.24,1.53,5.33,0,1.83-.39,3.4-1.17,4.73-.78,1.33-1.85,2.4-3.21,3.22-.87.52-2.06.96-3.57,1.3,1.21.41,2.09.81,2.65,1.21.37.27.92.85,1.63,1.73.71.88,1.19,1.57,1.42,2.05l4.93,9.54h-11.5l-5.44-10.06c-.69-1.3-1.3-2.15-1.84-2.54-.73-.51-1.56-.76-2.49-.76h-.9v13.36h-10.22ZM491.67,354.38h4.29c.46,0,1.36-.15,2.7-.45.67-.13,1.22-.48,1.65-1.03.43-.55.64-1.19.64-1.91,0-1.06-.34-1.88-1.01-2.45s-1.94-.85-3.8-.85h-4.47v6.69Z"/>
  <path class="st1" d="M526.78,341.04h27.27v7.03h-17.07v5.23h15.83v6.72h-15.83v6.49h17.56v7.46h-27.76v-32.93Z"/>
  <path class="st1" d="M567.95,363.07l9.68-.61c.21,1.57.64,2.77,1.28,3.59,1.05,1.33,2.55,2,4.49,2,1.45,0,2.57-.34,3.36-1.02.79-.68,1.18-1.47,1.18-2.37s-.37-1.62-1.12-2.29-2.49-1.31-5.21-1.91c-4.46-1-7.64-2.34-9.55-4-1.92-1.66-2.88-3.78-2.88-6.36,0-1.69.49-3.29,1.47-4.79.98-1.51,2.46-2.69,4.43-3.55,1.97-.86,4.67-1.29,8.1-1.29,4.21,0,7.42.78,9.62,2.35,2.21,1.57,3.52,4.05,3.94,7.47l-9.59.56c-.25-1.48-.79-2.56-1.61-3.23-.82-.67-1.94-1.01-3.38-1.01-1.18,0-2.07.25-2.67.75-.6.5-.9,1.11-.9,1.83,0,.52.25,1,.74,1.42.48.43,1.62.84,3.41,1.21,4.45.96,7.63,1.93,9.56,2.91,1.92.98,3.32,2.2,4.2,3.65.88,1.45,1.31,3.08,1.31,4.87,0,2.11-.58,4.06-1.75,5.84s-2.8,3.13-4.9,4.05c-2.1.92-4.74,1.38-7.93,1.38-5.6,0-9.48-1.08-11.63-3.23s-3.38-4.9-3.66-8.22Z"/>
  <path class="st1" d="M610.88,363.07l9.68-.61c.21,1.57.64,2.77,1.28,3.59,1.05,1.33,2.55,2,4.49,2,1.45,0,2.57-.34,3.36-1.02.79-.68,1.18-1.47,1.18-2.37s-.37-1.62-1.12-2.29-2.49-1.31-5.21-1.91c-4.46-1-7.64-2.34-9.55-4-1.92-1.66-2.88-3.78-2.88-6.36,0-1.69.49-3.29,1.47-4.79.98-1.51,2.46-2.69,4.43-3.55,1.97-.86,4.67-1.29,8.1-1.29,4.21,0,7.42.78,9.62,2.35,2.21,1.57,3.52,4.05,3.94,7.47l-9.59.56c-.25-1.48-.79-2.56-1.61-3.23-.82-.67-1.94-1.01-3.38-1.01-1.18,0-2.07.25-2.67.75-.6.5-.9,1.11-.9,1.83,0,.52.25,1,.74,1.42.48.43,1.62.84,3.41,1.21,4.45.96,7.63,1.93,9.56,2.91,1.92.98,3.32,2.2,4.2,3.65.88,1.45,1.31,3.08,1.31,4.87,0,2.11-.58,4.06-1.75,5.84s-2.8,3.13-4.9,4.05c-2.1.92-4.74,1.38-7.93,1.38-5.6,0-9.48-1.08-11.63-3.23s-3.38-4.9-3.66-8.22Z"/>
  <path class="st0" d="M751.76,33.41h-341.24c-.88,0-1.64.39-2.08.98.06.13.12.27.18.39,1.34,2.03,4.15,2.13,8.59,2.05,1.14-.02,2.32-.04,3.43.02,4.12.05,8.41.02,12.56,0,6.85-.04,13.93-.09,20.66.2h.11c2.62.22,3.5,1.31,3.78,2.18.33,1.02-.06,1.91-.79,2.72h294.79c1.36,0,2.47-.95,2.47-2.11v-4.31c0-1.17-1.11-2.11-2.47-2.11Z"/>
  <path class="st1" d="M684.04,63.44h-256.79c-1.72,1.08-3.34,2.17-4.78,3.43-1.23,1.03-1.3,2.51-.27,5.33.05.14.1.29.15.43h261.68c1.33,0,2.41-.93,2.41-2.08v-5.04c0-1.15-1.08-2.08-2.41-2.08Z"/>
  <path class="st0" d="M341.89,54.86c-3.37-1.97-6.82-3.99-10.16-5.98H50.53c-1.39,0-2.51.91-2.51,2.04v4.92c0,1.13,1.13,2.04,2.51,2.04h296.51c-1.72-1.01-3.45-2.02-5.15-3.02Z"/>
  <path class="st0" d="M324.29,39c.44-1.26,1.79-2,4.03-2.17,5.31-.27,10.63-.23,15.78-.19,3.1.02,6.31.05,9.42,0,1.65,0,3.26,0,4.87,0,3.06,0,6.22.02,9.28-.03h.5c2.01-.06,4.08-.11,5.29-.87.78-.47,1.38-1.36,1.88-2.33H10.69c-1.4,0-2.53.95-2.53,2.11v4.31c0,1.17,1.13,2.11,2.53,2.11h314.61c-.87-.83-1.41-1.8-1.01-2.94Z"/>
  <path class="st0" d="M714.52,48.48h-263.02c-3.34,2.13-7.06,4.49-10.73,6.82l-4.06,2.58h277.81c1.34,0,2.43-.95,2.43-2.13v-5.14c0-1.18-1.09-2.13-2.43-2.13Z"/>
  <path class="st1" d="M362.12,69.62c.4-1.85-1.65-3.24-4.59-5.01-.53-.32-1.07-.65-1.61-.97H81.24c-1.39,0-2.52.92-2.52,2.05v4.91c0,1.13,1.13,2.05,2.52,2.05h279.93c.34-1.01.66-2.02.95-3.02Z"/>
  <polygon class="st0" points="390.17 6.99 402.11 43.76 440.77 43.76 409.49 66.48 421.44 103.24 390.17 80.52 358.89 103.24 370.84 66.48 339.57 43.76 378.22 43.76 390.17 6.99"/>
  <rect class="st1" x="8.16" y="314.84" width="746.07" height="7.22"/>
</svg>