<?xml version="1.0" encoding="UTF-8"?>
<svg id="Layer_1" xmlns="http://www.w3.org/2000/svg" version="1.1" viewBox="0 0 1166.61 606.47">
  <!-- Generator: Adobe Illustrator 30.1.0, SVG Export Plug-In . SVG Version: 2.1.1 Build 136)  -->
  <defs>
    <style>
      .st0 {
        font-family: Arial-Black, 'Arial Black';
        font-size: 71.41px;
        font-weight: 800;
        letter-spacing: .17em;
      }

      .st0, .st1 {
        fill: #fff;
      }
    </style>
  </defs>
  <path class="st1" d="M0,182.57h227.29v58.6H85v43.62h131.99v55.98H85v54.11h146.41v62.16H0V182.57Z"/>
  <path class="st1" d="M277.09,182.57h84.81v206.88h132.37v67.59h-217.18V182.57Z"/>
  <path class="st1" d="M452.26,182.57h88.66l61.78,197.52,60.99-197.52h86.08l-101.91,274.47h-91.93l-103.66-274.47Z"/>
  <path class="st1" d="M777.73,182.57h85v274.47h-85V182.57Z"/>
  <path class="st1" d="M908.79,366.24l80.69-5.05c1.75,13.11,5.3,23.09,10.67,29.96,8.74,11.11,21.22,16.66,37.44,16.66,12.11,0,21.44-2.84,27.99-8.52,6.55-5.68,9.83-12.26,9.83-19.75s-3.12-13.48-9.36-19.1c-6.24-5.62-20.72-10.92-43.44-15.91-37.19-8.36-63.72-19.47-79.57-33.33-15.98-13.85-23.96-31.52-23.96-52.98,0-14.1,4.09-27.43,12.26-39.97,8.17-12.54,20.47-22.4,36.88-29.58,16.41-7.18,38.91-10.77,67.49-10.77,35.07,0,61.81,6.52,80.22,19.56,18.41,13.04,29.36,33.79,32.86,62.25l-79.95,4.68c-2.12-12.36-6.59-21.34-13.39-26.96-6.81-5.62-16.2-8.43-28.18-8.43-9.86,0-17.29,2.09-22.28,6.27-4.99,4.18-7.49,9.27-7.49,15.26,0,4.37,2.06,8.3,6.18,11.8,3.99,3.62,13.48,6.99,28.46,10.11,37.07,7.99,63.62,16.07,79.66,24.25,16.04,8.18,27.71,18.32,35.01,30.42,7.3,12.11,10.95,25.65,10.95,40.63,0,17.6-4.87,33.83-14.61,48.68-9.74,14.86-23.34,26.12-40.81,33.79-17.48,7.68-39.51,11.52-66.09,11.52-46.68,0-79.01-8.99-96.98-26.96-17.97-17.97-28.15-40.82-30.52-68.53Z"/>
  <rect class="st1" x="1024.24" y="494.29" width="142.37" height="38.05"/>
  <text class="st0" transform="translate(225.97 540.07)"><tspan x="0" y="0">FOR CONGRESS</tspan></text>
  <rect class="st1" x="4.9" y="496.88" width="183.75" height="38.05"/>
  <path class="st1" d="M1162.71,48.97h-538.4c-1.38,0-2.59.72-3.28,1.81.1.24.19.49.29.73,2.11,3.74,6.55,3.92,13.55,3.79,1.8-.04,3.66-.07,5.41.03,6.5.09,13.27.04,19.81-.01,10.81-.08,21.98-.17,32.6.37h.18c4.13.41,5.53,2.41,5.97,4.02.52,1.89-.09,3.53-1.24,5.01h465.12c2.15,0,3.9-1.75,3.9-3.9v-7.95c0-2.15-1.75-3.9-3.9-3.9Z"/>
  <path class="st1" d="M1065.69,99.99h-415.08c-2.78,2.02-5.39,4.05-7.72,6.43-1.99,1.93-2.09,4.71-.43,9.97.08.27.17.54.24.81h422.99c2.15,0,3.89-1.74,3.89-3.89v-9.44c0-2.15-1.74-3.89-3.89-3.89Z"/>
  <path class="st1" d="M517.72,84.76c-5.23-3.77-10.58-7.63-15.77-11.44H65.42c-2.16,0-3.9,1.75-3.9,3.9v9.41c0,2.16,1.75,3.9,3.9,3.9h460.3c-2.68-1.94-5.35-3.87-8-5.77Z"/>
  <path class="st1" d="M491.12,59.3c.67-2.33,2.76-3.68,6.2-4.01,8.16-.5,16.35-.43,24.27-.36,4.77.04,9.7.09,14.49,0,2.54,0,5.01,0,7.49,0,4.7.01,9.57.03,14.28-.06l.77-.02c3.09-.09,6.28-.18,8.14-1.57,1.2-.87,2.12-2.51,2.89-4.3H8.8c-2.15,0-3.9,1.75-3.9,3.9v7.95c0,2.15,1.75,3.9,3.9,3.9h483.89c-1.34-1.54-2.16-3.32-1.56-5.42Z"/>
  <path class="st1" d="M1110.03,73.32h-421.42c-5.36,3.9-11.31,8.22-17.19,12.49l-6.51,4.72h445.12c2.15,0,3.9-1.75,3.9-3.9v-9.41c0-2.15-1.75-3.9-3.9-3.9Z"/>
  <path class="st1" d="M549.12,111.44c.62-3.53-2.56-6.2-7.13-9.58-.82-.62-1.67-1.24-2.5-1.86H113.09c-2.16,0-3.91,1.75-3.91,3.91v9.38c0,2.16,1.75,3.91,3.91,3.91h434.55c.52-1.94,1.03-3.86,1.48-5.77Z"/>
  <polygon class="st1" points="594.97 0 615.97 64.62 683.91 64.62 628.94 104.56 649.94 169.18 594.97 129.24 540 169.18 560.99 104.56 506.02 64.62 573.97 64.62 594.97 0"/>
</svg>