<?xml version="1.0" encoding="UTF-8"?>
<svg xmlns="http://www.w3.org/2000/svg" version="1.1" viewBox="0 0 2592 1728">
  <!-- Generator: Adobe Illustrator 30.1.0, SVG Export Plug-In . SVG Version: 2.1.1 Build 136)  -->
  <defs>
    <style>
      .st0 {
        font-size: 144px;
      }

      .st0, .st1, .st2, .st3 {
        stroke-miterlimit: 10;
      }

      .st0, .st2, .st3 {
        stroke: #1c3f60;
      }

      .st0, .st4 {
        font-family: Arial-Black, 'Arial Black';
        font-weight: 800;
      }

      .st0, .st3 {
        fill: #1c3f60;
      }

      .st1 {
        fill: none;
        stroke: #dd102d;
        stroke-width: 18px;
      }

      .st2, .st5, .st4 {
        fill: #fff;
      }

      .st6 {
        fill: #dd102d;
      }

      .st4 {
        font-size: 239px;
        letter-spacing: .07em;
      }
    </style>
  </defs>
  <g id="Layer_2">
    <rect class="st3" width="2592" height="1728"/>
    <rect class="st3" x="2652" y="0" width="2592" height="1728"/>
    <g>
      <path class="st5" d="M3002.66,236.85h364.34v93.94h-228.09v69.93h211.58v89.74h-211.58v86.73h234.69v99.64h-370.95V236.85Z"/>
      <path class="st5" d="M3446.84,236.85h135.95v331.63h212.18v108.34h-348.14V236.85Z"/>
      <path class="st5" d="M3782.37,236.85h142.12l99.03,316.63,97.76-316.63h137.98l-163.37,439.97h-147.36l-166.16-439.97Z"/>
      <path class="st5" d="M4309.08,236.85h136.25v439.97h-136.25V236.85Z"/>
      <path class="st5" d="M4519.17,531.27l129.35-8.1c2.8,21.01,8.5,37.02,17.11,48.02,14,17.81,34.01,26.71,60.02,26.71,19.4,0,34.36-4.55,44.87-13.66,10.5-9.1,15.76-19.66,15.76-31.66s-5-21.61-15.01-30.61c-10.01-9-33.21-17.51-69.63-25.51-59.63-13.4-102.14-31.21-127.55-53.42-25.61-22.21-38.42-50.52-38.42-84.93,0-22.61,6.55-43.97,19.66-64.08,13.1-20.11,32.81-35.91,59.12-47.42,26.31-11.5,62.37-17.26,108.19-17.26,56.22,0,99.09,10.46,128.6,31.36,29.51,20.91,47.07,54.17,52.67,99.79l-128.15,7.5c-3.4-19.81-10.56-34.21-21.46-43.22-10.91-9-25.96-13.51-45.17-13.51-15.81,0-27.71,3.35-35.71,10.05-8,6.71-12,14.86-12,24.46,0,7.01,3.3,13.31,9.9,18.91,6.4,5.81,21.61,11.21,45.62,16.21,59.42,12.81,101.99,25.76,127.7,38.87,25.71,13.11,44.42,29.37,56.12,48.77,11.7,19.41,17.56,41.12,17.56,65.13,0,28.21-7.8,54.22-23.41,78.03-15.61,23.81-37.42,41.87-65.43,54.17-28.01,12.3-63.33,18.46-105.94,18.46-74.83,0-126.65-14.41-155.46-43.22-28.81-28.81-45.12-65.43-48.92-109.84Z"/>
    </g>
    <g>
      <path class="st5" d="M3812.29,795.53h80.41v22.62h-47.74v18.38h40.78v21.25h-40.78v43.01h-32.67v-105.25Z"/>
      <path class="st5" d="M3906.12,848.23c0-17.18,4.79-30.56,14.36-40.13,9.57-9.57,22.9-14.36,39.99-14.36s31.02,4.7,40.49,14.11c9.48,9.41,14.22,22.58,14.22,39.52,0,12.3-2.07,22.39-6.21,30.26-4.14,7.87-10.12,14-17.95,18.38-7.83,4.38-17.58,6.57-29.26,6.57s-21.69-1.89-29.47-5.67c-7.78-3.78-14.08-9.76-18.92-17.95-4.83-8.18-7.25-18.43-7.25-30.73ZM3938.65,848.37c0,10.63,1.97,18.26,5.92,22.9,3.95,4.64,9.32,6.96,16.12,6.96s12.4-2.27,16.23-6.82c3.83-4.55,5.74-12.71,5.74-24.48,0-9.91-2-17.15-6-21.72-4-4.57-9.42-6.86-16.26-6.86s-11.82,2.32-15.8,6.96c-3.97,4.64-5.96,12.32-5.96,23.05Z"/>
      <path class="st5" d="M4033.13,900.78v-105.25h54.21c10.05,0,17.73.86,23.05,2.58,5.31,1.72,9.6,4.92,12.85,9.58,3.25,4.67,4.88,10.35,4.88,17.05,0,5.84-1.25,10.88-3.74,15.11-2.49,4.24-5.92,7.67-10.27,10.3-2.78,1.68-6.59,3.06-11.42,4.17,3.87,1.29,6.7,2.59,8.47,3.88,1.2.86,2.93,2.71,5.2,5.53,2.27,2.83,3.79,5.01,4.56,6.54l15.75,30.5h-36.75l-17.38-32.16c-2.2-4.16-4.16-6.87-5.89-8.11-2.35-1.63-5-2.44-7.97-2.44h-2.87v42.72h-32.67ZM4065.8,838.18h13.71c1.48,0,4.35-.48,8.62-1.44,2.15-.43,3.91-1.53,5.28-3.3,1.36-1.77,2.05-3.8,2.05-6.1,0-3.4-1.08-6.01-3.23-7.83-2.15-1.82-6.2-2.73-12.13-2.73h-14.29v21.4Z"/>
    </g>
    <g>
      <path class="st5" d="M3105.74,1017.63h49.12v94.91c0,9.41-1.47,18.3-4.4,26.66-2.93,8.36-7.54,15.67-13.8,21.94-6.27,6.26-12.84,10.66-19.72,13.19-9.56,3.55-21.05,5.32-34.45,5.32-7.75,0-16.21-.54-25.37-1.63-9.17-1.09-16.83-3.24-22.98-6.46-6.16-3.22-11.79-7.8-16.9-13.74-5.11-5.94-8.6-12.05-10.49-18.35-3.04-10.13-4.56-19.11-4.56-26.93v-94.91h49.12v97.17c0,8.69,2.41,15.47,7.23,20.36,4.82,4.89,11.5,7.33,20.05,7.33s15.12-2.41,19.94-7.22c4.82-4.81,7.23-11.63,7.23-20.47v-97.17Z"/>
      <path class="st5" d="M3177.03,1132.6h47.27v44.33h-47.27v-44.33Z"/>
      <path class="st5" d="M3245.38,1124.23l46.83-2.93c1.01,7.61,3.08,13.4,6.19,17.39,5.07,6.45,12.31,9.67,21.73,9.67,7.03,0,12.44-1.65,16.25-4.94,3.8-3.3,5.7-7.12,5.7-11.46s-1.81-7.82-5.43-11.08c-3.62-3.26-12.03-6.34-25.21-9.24-21.59-4.85-36.98-11.3-46.18-19.34-9.27-8.04-13.91-18.29-13.91-30.75,0-8.19,2.37-15.92,7.12-23.2,4.74-7.28,11.88-13,21.41-17.17,9.52-4.17,22.58-6.25,39.17-6.25,20.36,0,35.88,3.79,46.56,11.36,10.68,7.57,17.04,19.61,19.07,36.13l-46.4,2.72c-1.23-7.17-3.82-12.39-7.77-15.65-3.95-3.26-9.4-4.89-16.35-4.89-5.72,0-10.03,1.21-12.93,3.64-2.9,2.43-4.35,5.38-4.35,8.86,0,2.54,1.2,4.82,3.59,6.85,2.32,2.1,7.82,4.06,16.52,5.87,21.52,4.64,36.93,9.33,46.24,14.07,9.31,4.74,16.08,10.63,20.32,17.66,4.24,7.03,6.36,14.89,6.36,23.58,0,10.21-2.83,19.63-8.48,28.25-5.65,8.62-13.55,15.16-23.69,19.61-10.14,4.46-22.93,6.68-38.36,6.68-27.09,0-45.86-5.22-56.29-15.65-10.43-10.43-16.34-23.69-17.71-39.77Z"/>
      <path class="st5" d="M3411.85,1132.6h47.27v44.33h-47.27v-44.33Z"/>
      <path class="st5" d="M3669.06,1111.73l43.14,13.04c-2.9,12.1-7.46,22.2-13.69,30.32-6.23,8.11-13.96,14.23-23.2,18.36-9.24,4.13-20.99,6.19-35.26,6.19-17.32,0-31.46-2.52-42.43-7.55-10.98-5.03-20.45-13.88-28.42-26.55-7.97-12.67-11.95-28.89-11.95-48.65,0-26.35,7.01-46.6,21.03-60.76,14.02-14.15,33.85-21.23,59.49-21.23,20.07,0,35.84,4.06,47.32,12.17,11.48,8.11,20.01,20.57,25.59,37.38l-43.47,9.67c-1.52-4.85-3.12-8.4-4.78-10.65-2.75-3.77-6.12-6.66-10.11-8.69-3.98-2.03-8.44-3.04-13.37-3.04-11.16,0-19.71,4.49-25.64,13.46-4.49,6.66-6.74,17.11-6.74,31.37,0,17.66,2.68,29.76,8.04,36.31,5.36,6.55,12.89,9.82,22.6,9.82s16.53-2.64,21.35-7.93c4.82-5.29,8.31-12.97,10.49-23.04Z"/>
      <path class="st5" d="M3729.91,1097.39c0-26.01,7.24-46.25,21.73-60.74,14.49-14.49,34.66-21.73,60.53-21.73s46.94,7.12,61.29,21.35c14.34,14.23,21.52,34.17,21.52,59.82,0,18.62-3.13,33.89-9.4,45.8-6.27,11.92-15.32,21.19-27.17,27.82-11.84,6.63-26.61,9.94-44.28,9.94s-32.84-2.86-44.61-8.58c-11.77-5.72-21.32-14.78-28.63-27.17-7.32-12.39-10.98-27.89-10.98-46.51ZM3779.13,1097.61c0,16.08,2.99,27.64,8.96,34.66,5.98,7.03,14.11,10.54,24.4,10.54s18.76-3.44,24.56-10.32c5.79-6.88,8.69-19.23,8.69-37.05,0-15-3.03-25.95-9.07-32.87-6.05-6.92-14.25-10.38-24.61-10.38s-17.89,3.51-23.91,10.54c-6.01,7.03-9.02,18.65-9.02,34.88Z"/>
      <path class="st5" d="M3921.81,1017.63h45.96l59.98,88.13v-88.13h46.4v159.3h-46.4l-59.66-87.47v87.47h-46.29v-159.3Z"/>
      <path class="st5" d="M4186.95,1119.23v-33.14h76.06v67.91c-14.56,9.93-27.44,16.68-38.63,20.27-11.19,3.59-24.47,5.38-39.83,5.38-18.91,0-34.32-3.22-46.24-9.67-11.92-6.45-21.15-16.04-27.71-28.8-6.56-12.75-9.83-27.38-9.83-43.9,0-17.39,3.59-32.51,10.76-45.37,7.17-12.86,17.67-22.62,31.51-29.28,10.79-5.14,25.32-7.72,43.57-7.72s30.77,1.59,39.5,4.78c8.73,3.19,15.97,8.13,21.73,14.83,5.76,6.7,10.09,15.2,12.99,25.48l-47.49,8.48c-1.96-6.01-5.27-10.61-9.94-13.8-4.67-3.19-10.63-4.78-17.88-4.78-10.8,0-19.4,3.75-25.81,11.25-6.41,7.5-9.62,19.36-9.62,35.59,0,17.24,3.24,29.56,9.73,36.95,6.48,7.39,15.52,11.08,27.11,11.08,5.5,0,10.76-.8,15.76-2.39,5-1.59,10.72-4.31,17.17-8.15v-15h-32.93Z"/>
      <path class="st5" d="M4292.89,1176.93v-159.3h82.04c15.21,0,26.84,1.3,34.88,3.91,8.04,2.61,14.52,7.44,19.45,14.51,4.93,7.06,7.39,15.67,7.39,25.81,0,8.84-1.88,16.46-5.65,22.87-3.77,6.41-8.95,11.61-15.55,15.59-4.2,2.54-9.97,4.64-17.29,6.3,5.86,1.96,10.13,3.92,12.81,5.87,1.81,1.31,4.43,4.1,7.87,8.37,3.44,4.28,5.74,7.58,6.89,9.9l23.84,46.16h-55.62l-26.31-48.68c-3.33-6.3-6.3-10.39-8.91-12.28-3.55-2.46-7.57-3.69-12.06-3.69h-4.35v64.66h-49.44ZM4342.34,1082.18h20.75c2.24,0,6.59-.72,13.04-2.17,3.26-.65,5.92-2.32,7.99-5,2.06-2.68,3.1-5.76,3.1-9.24,0-5.14-1.63-9.09-4.89-11.84-3.26-2.75-9.38-4.13-18.36-4.13h-21.62v32.38Z"/>
      <path class="st5" d="M4465.24,1017.63h131.92v34.01h-82.58v25.32h76.61v32.49h-76.61v31.4h84.98v36.08h-134.31v-159.3Z"/>
      <path class="st5" d="M4617.47,1124.23l46.83-2.93c1.01,7.61,3.08,13.4,6.19,17.39,5.07,6.45,12.31,9.67,21.73,9.67,7.03,0,12.44-1.65,16.25-4.94,3.8-3.3,5.7-7.12,5.7-11.46s-1.81-7.82-5.43-11.08c-3.62-3.26-12.03-6.34-25.21-9.24-21.59-4.85-36.98-11.3-46.18-19.34-9.27-8.04-13.91-18.29-13.91-30.75,0-8.19,2.37-15.92,7.12-23.2,4.74-7.28,11.88-13,21.41-17.17,9.52-4.17,22.58-6.25,39.17-6.25,20.36,0,35.88,3.79,46.56,11.36,10.68,7.57,17.04,19.61,19.07,36.13l-46.4,2.72c-1.23-7.17-3.82-12.39-7.77-15.65-3.95-3.26-9.4-4.89-16.35-4.89-5.72,0-10.03,1.21-12.93,3.64-2.9,2.43-4.35,5.38-4.35,8.86,0,2.54,1.2,4.82,3.59,6.85,2.32,2.1,7.82,4.06,16.52,5.87,21.52,4.64,36.93,9.33,46.24,14.07,9.31,4.74,16.08,10.63,20.32,17.66,4.24,7.03,6.36,14.89,6.36,23.58,0,10.21-2.83,19.63-8.48,28.25-5.65,8.62-13.55,15.16-23.69,19.61-10.14,4.46-22.93,6.68-38.36,6.68-27.09,0-45.86-5.22-56.29-15.65-10.43-10.43-16.34-23.69-17.71-39.77Z"/>
      <path class="st5" d="M4778.19,1124.23l46.83-2.93c1.01,7.61,3.08,13.4,6.19,17.39,5.07,6.45,12.31,9.67,21.73,9.67,7.03,0,12.44-1.65,16.25-4.94,3.8-3.3,5.7-7.12,5.7-11.46s-1.81-7.82-5.43-11.08c-3.62-3.26-12.03-6.34-25.21-9.24-21.59-4.85-36.98-11.3-46.18-19.34-9.27-8.04-13.91-18.29-13.91-30.75,0-8.19,2.37-15.92,7.12-23.2,4.74-7.28,11.88-13,21.41-17.17,9.52-4.17,22.58-6.25,39.17-6.25,20.36,0,35.88,3.79,46.56,11.36,10.68,7.57,17.04,19.61,19.07,36.13l-46.4,2.72c-1.23-7.17-3.82-12.39-7.77-15.65-3.95-3.26-9.4-4.89-16.35-4.89-5.72,0-10.03,1.21-12.93,3.64-2.9,2.43-4.35,5.38-4.35,8.86,0,2.54,1.2,4.82,3.59,6.85,2.32,2.1,7.82,4.06,16.52,5.87,21.52,4.64,36.93,9.33,46.24,14.07,9.31,4.74,16.08,10.63,20.32,17.66,4.24,7.03,6.36,14.89,6.36,23.58,0,10.21-2.83,19.63-8.48,28.25-5.65,8.62-13.55,15.16-23.69,19.61-10.14,4.46-22.93,6.68-38.36,6.68-27.09,0-45.86-5.22-56.29-15.65-10.43-10.43-16.34-23.69-17.71-39.77Z"/>
    </g>
    <rect class="st6" x="3003.81" y="830.63" width="714.85" height="44.59"/>
    <rect class="st6" x="4203.41" y="827.07" width="714.85" height="44.59"/>
    <rect class="st2" x="3371.67" y="1391.27" width="1269.39" height="194.95"/>
    <text class="st0" transform="translate(3513.2 1543.6)"><tspan x="0" y="0">DISTRICT 31</tspan></text>
    <rect class="st1" x="2713.89" y="55.81" width="2467.74" height="1610.08"/>
  </g>
  <g id="Layer_1">
    <g>
      <path class="st5" d="M213.46,278.21h411.78v106.17h-257.79v79.03h239.13v101.42h-239.13v98.03h265.25v112.61H213.46v-497.26Z"/>
      <path class="st5" d="M715.47,278.21h153.66v374.81h239.81v122.45h-393.47v-497.26Z"/>
      <path class="st5" d="M1094.69,278.21h160.63l111.92,357.85,110.49-357.85h155.95l-184.64,497.26h-166.55l-187.8-497.26Z"/>
      <path class="st5" d="M1689.98,278.21h153.99v497.26h-153.99v-497.26Z"/>
      <path class="st5" d="M1927.41,610.96l146.19-9.16c3.16,23.74,9.61,41.84,19.33,54.27,15.83,20.13,38.44,30.19,67.84,30.19,21.93,0,38.84-5.14,50.71-15.43,11.87-10.29,17.81-22.22,17.81-35.79s-5.66-24.42-16.96-34.6c-11.31-10.18-37.54-19.78-78.69-28.83-67.39-15.15-115.44-35.28-144.16-60.38-28.95-25.1-43.42-57.1-43.42-95.99,0-25.55,7.4-49.69,22.22-72.42,14.81-22.73,37.08-40.59,66.82-53.59,29.73-13,70.49-19.5,122.28-19.5,63.54,0,111.99,11.82,145.35,35.45,33.35,23.63,53.2,61.22,59.53,112.78l-144.84,8.48c-3.85-22.39-11.93-38.67-24.25-48.84-12.33-10.18-29.34-15.26-51.05-15.26-17.87,0-31.32,3.79-40.36,11.36-9.05,7.58-13.57,16.79-13.57,27.64,0,7.92,3.73,15.04,11.19,21.37,7.23,6.56,24.42,12.67,51.56,18.32,67.16,14.47,115.27,29.12,144.33,43.93,29.05,14.81,50.2,33.19,63.43,55.12,13.23,21.94,19.84,46.47,19.84,73.61,0,31.88-8.82,61.28-26.46,88.19-17.64,26.91-42.29,47.32-73.94,61.22-31.66,13.91-71.57,20.86-119.74,20.86-84.58,0-143.14-16.28-175.7-48.84-32.56-32.56-51-73.94-55.29-124.15Z"/>
    </g>
    <g>
      <path class="st5" d="M1143.98,947.7h86.05v24.2h-51.09v19.67h43.64v22.74h-43.64v46.02h-34.96v-112.64Z"/>
      <path class="st5" d="M1244.4,1004.1c0-18.39,5.12-32.71,15.37-42.95,10.24-10.24,24.51-15.37,42.8-15.37s33.19,5.03,43.33,15.1c10.14,10.07,15.21,24.16,15.21,42.3,0,13.17-2.22,23.96-6.65,32.39-4.43,8.43-10.83,14.98-19.21,19.67-8.37,4.69-18.81,7.03-31.31,7.03s-23.22-2.02-31.54-6.07c-8.32-4.05-15.07-10.45-20.25-19.21-5.17-8.76-7.76-19.72-7.76-32.89ZM1279.21,1004.25c0,11.37,2.11,19.54,6.34,24.51,4.23,4.97,9.97,7.45,17.25,7.45s13.27-2.43,17.36-7.3c4.1-4.86,6.15-13.6,6.15-26.2,0-10.6-2.14-18.35-6.42-23.24-4.28-4.89-10.08-7.34-17.4-7.34s-12.65,2.49-16.9,7.45c-4.25,4.97-6.38,13.19-6.38,24.66Z"/>
      <path class="st5" d="M1380.32,1060.34v-112.64h58.01c10.76,0,18.98.92,24.66,2.77,5.69,1.84,10.27,5.26,13.75,10.26,3.48,4.99,5.22,11.08,5.22,18.25,0,6.25-1.33,11.64-4,16.17-2.67,4.53-6.33,8.21-10.99,11.03-2.97,1.79-7.05,3.28-12.22,4.46,4.15,1.38,7.17,2.77,9.06,4.15,1.28.92,3.13,2.9,5.57,5.92,2.43,3.02,4.06,5.36,4.88,7l16.86,32.64h-39.33l-18.6-34.42c-2.36-4.46-4.46-7.35-6.3-8.68-2.51-1.74-5.35-2.61-8.53-2.61h-3.07v45.72h-34.96ZM1415.28,993.34h14.68c1.59,0,4.66-.51,9.22-1.54,2.31-.46,4.19-1.64,5.65-3.53,1.46-1.89,2.19-4.07,2.19-6.53,0-3.64-1.15-6.43-3.46-8.38-2.31-1.95-6.63-2.92-12.99-2.92h-15.29v22.9Z"/>
    </g>
    <rect class="st6" x="278.77" y="976.21" width="765.02" height="55.39"/>
    <rect class="st6" x="1562.56" y="971.78" width="765.02" height="55.39"/>
    <rect class="st1" x="61.89" y="55.81" width="2467.74" height="1610.08"/>
    <text class="st4" transform="translate(152.56 1422.52)"><tspan x="0" y="0">U.S. CONGRESS</tspan></text>
  </g>
</svg>